<svg xmlns="http://www.w3.org/2000/svg" viewBox="0 0 180 40" fill="none">
  <!-- Serveo Full Logo - Icon + Wordmark -->

  <!-- Icon: Abstract S representing service/flow/connection -->
  <g id="icon">
    <path d="M6 10C6 6.68629 8.68629 4 12 4H20C23.3137 4 26 6.68629 26 10C26 13.3137 23.3137 16 20 16H14"
          stroke="#1e3a5f" stroke-width="3.5" stroke-linecap="round" fill="none"/>
    <path d="M26 30C26 33.3137 23.3137 36 20 36H12C8.68629 36 6 33.3137 6 30C6 26.6863 8.68629 24 12 24H18"
          stroke="#1e3a5f" stroke-width="3.5" stroke-linecap="round" fill="none"/>
    <path d="M14 16C14 16 18 20 18 24"
          stroke="#0d9488" stroke-width="3.5" stroke-linecap="round" fill="none"/>
  </g>

  <!-- Wordmark -->
  <g id="wordmark" fill="#1e3a5f" font-family="Inter, system-ui, sans-serif">
    <!-- s -->
    <path d="M42.5 26.8c0-2.4 1.8-3.8 5.2-4.2l3.6-.4v-.4c0-1.6-1-2.4-2.8-2.4-1.6 0-2.7.7-3 1.9l-2.8-.5c.5-2.4 2.8-4 6-4 3.6 0 5.6 1.8 5.6 5v9h-2.8v-1.8c-.8 1.3-2.3 2.1-4.2 2.1-2.5 0-4.8-1.5-4.8-4.3zm8.8-1.2v-1l-3.2.4c-1.6.2-2.4.9-2.4 2s1 1.8 2.4 1.8c2 0 3.2-1.2 3.2-3.2z"/>
    <!-- e -->
    <path d="M57.5 24c0-4.2 2.8-7 6.6-7 3.6 0 6.2 2.4 6.2 6.4v1.2h-10c.2 2.2 1.6 3.4 3.8 3.4 1.8 0 3-.8 3.4-2.1l2.6.8c-.7 2.4-3 4-6.2 4-4 0-6.4-2.8-6.4-6.7zm2.8-1.4h7c-.2-2-1.6-3.2-3.4-3.2-2 0-3.4 1.2-3.6 3.2z"/>
    <!-- r -->
    <path d="M73 17.3h2.8v2.4c.7-1.7 2.2-2.7 4.2-2.7v3h-.8c-2.2 0-3.4 1-3.4 3.6v7.2H73V17.3z"/>
    <!-- v -->
    <path d="M81.5 17.3h3l3.6 10.4 3.6-10.4h3l-5.2 13.5h-2.8l-5.2-13.5z"/>
    <!-- e -->
    <path d="M95.5 24c0-4.2 2.8-7 6.6-7 3.6 0 6.2 2.4 6.2 6.4v1.2h-10c.2 2.2 1.6 3.4 3.8 3.4 1.8 0 3-.8 3.4-2.1l2.6.8c-.7 2.4-3 4-6.2 4-4 0-6.4-2.8-6.4-6.7zm2.8-1.4h7c-.2-2-1.6-3.2-3.4-3.2-2 0-3.4 1.2-3.6 3.2z"/>
    <!-- o -->
    <path d="M110.5 24c0-4.2 2.8-7 6.6-7s6.6 2.8 6.6 7-2.8 7-6.6 7-6.6-2.8-6.6-7zm10.4 0c0-2.8-1.5-4.4-3.8-4.4s-3.8 1.6-3.8 4.4c0 2.8 1.5 4.4 3.8 4.4s3.8-1.6 3.8-4.4z"/>
  </g>
</svg>
