<svg xmlns="http://www.w3.org/2000/svg" viewBox="0 0 160 40" fill="none">
  <!-- Serveo Logo - Primary horizontal version -->

  <!-- Icon -->
  <g transform="translate(0, 0)">
    <path d="M5 11C5 7.68629 7.68629 5 11 5H21C24.3137 5 27 7.68629 27 11C27 14.3137 24.3137 17 21 17H13"
          stroke="#1e3a5f" stroke-width="3.5" stroke-linecap="round" fill="none"/>
    <path d="M27 29C27 32.3137 24.3137 35 21 35H11C7.68629 35 5 32.3137 5 29C5 25.6863 7.68629 23 11 23H19"
          stroke="#1e3a5f" stroke-width="3.5" stroke-linecap="round" fill="none"/>
    <path d="M13 17L19 23"
          stroke="#0d9488" stroke-width="3.5" stroke-linecap="round" fill="none"/>
  </g>

  <!-- Wordmark: Serveo -->
  <g fill="#1e3a5f">
    <!-- S -->
    <path d="M44.2 28.8c-2.9 0-5-1.4-5.5-3.8l2.4-.6c.3 1.4 1.4 2.2 3.1 2.2 1.6 0 2.6-.7 2.6-1.8 0-1-.7-1.5-2.4-1.9l-1.8-.4c-2.5-.6-3.8-1.9-3.8-4 0-2.4 2-4 5-4 2.7 0 4.6 1.3 5.1 3.5l-2.4.6c-.3-1.2-1.3-1.9-2.7-1.9-1.5 0-2.4.7-2.4 1.7 0 .9.6 1.4 2.2 1.8l1.8.4c2.7.6 4 1.9 4 4.1 0 2.5-2.1 4.1-5.2 4.1z"/>
    <!-- e -->
    <path d="M52.5 22.5c0-3.8 2.5-6.3 6-6.3 3.3 0 5.7 2.2 5.7 5.8v1.1H55c.2 2 1.5 3.1 3.5 3.1 1.6 0 2.7-.7 3.1-1.9l2.4.7c-.6 2.2-2.7 3.6-5.6 3.6-3.7 0-5.9-2.5-5.9-6.1zm2.6-1.3h6.4c-.2-1.8-1.4-2.9-3.1-2.9-1.8 0-3.1 1.1-3.3 2.9z"/>
    <!-- r -->
    <path d="M67 16.5h2.5v2.2c.6-1.5 2-2.5 3.8-2.5v2.7h-.7c-2 0-3.1.9-3.1 3.3v6.5H67V16.5z"/>
    <!-- v -->
    <path d="M74.8 16.5h2.7l3.3 9.4 3.3-9.4h2.7l-4.7 12.2h-2.6l-4.7-12.2z"/>
    <!-- e -->
    <path d="M87.5 22.5c0-3.8 2.5-6.3 6-6.3 3.3 0 5.7 2.2 5.7 5.8v1.1H90c.2 2 1.5 3.1 3.5 3.1 1.6 0 2.7-.7 3.1-1.9l2.4.7c-.6 2.2-2.7 3.6-5.6 3.6-3.7 0-5.9-2.5-5.9-6.1zm2.6-1.3h6.4c-.2-1.8-1.4-2.9-3.1-2.9-1.8 0-3.1 1.1-3.3 2.9z"/>
    <!-- o -->
    <path d="M101 22.5c0-3.8 2.5-6.3 6-6.3s6 2.5 6 6.3-2.5 6.3-6 6.3-6-2.5-6-6.3zm9.4 0c0-2.5-1.4-4-3.4-4s-3.4 1.5-3.4 4 1.4 4 3.4 4 3.4-1.5 3.4-4z"/>
  </g>
</svg>
